<svg width="1045" height="424" viewBox="0 0 1045 424" fill="none" xmlns="http://www.w3.org/2000/svg">
<path d="M80.7132 61.3111L106.694 46.3112L132.675 61.3112L106.694 76.3112L80.7132 61.3111Z" fill="#D9D9D9"/>
<path d="M80.7132 61.3111L106.694 46.3112L132.675 61.3112L106.694 76.3112L80.7132 61.3111Z" fill="#D9D9D9"/>
<path d="M106.694 76.3112L132.675 61.3112L158.656 76.3112L132.675 91.3112L106.694 76.3112Z" fill="#D9D9D9"/>
<path d="M106.694 76.3112L132.675 61.3112L158.656 76.3112L132.675 91.3112L106.694 76.3112Z" fill="#D9D9D9"/>
<path d="M80.7132 61.3111L106.694 46.3112L132.675 61.3112L106.694 76.3112L80.7132 61.3111Z" fill="#C52922"/>
<path d="M106.694 76.3112L132.675 61.3112L158.656 76.3112L132.675 91.3112L106.694 76.3112Z" fill="#D9D9D9"/>
<path d="M106.694 76.3112L132.675 61.3112L158.656 76.3112L132.675 91.3112L106.694 76.3112Z" fill="#D9D9D9"/>
<path d="M132.675 91.3112L158.656 76.3112L184.636 91.3112L158.656 106.311L132.675 91.3112Z" fill="#D9D9D9"/>
<path d="M132.675 91.3112L158.656 76.3112L184.636 91.3112L158.656 106.311L132.675 91.3112Z" fill="#C52922"/>
<path d="M158.656 106.311L184.636 91.3112L210.617 106.311L184.636 121.311L158.656 106.311Z" fill="#D9D9D9"/>
<path d="M106.694 76.3112L132.675 61.3112L158.656 76.3112L132.675 91.3112L106.694 76.3112Z" fill="#D9D9D9"/>
<path d="M106.694 76.3112L132.675 61.3112L158.656 76.3112L132.675 91.3112L106.694 76.3112Z" fill="#D9D9D9"/>
<path d="M106.694 76.3112L132.675 61.3112L158.656 76.3112L132.675 91.3112L106.694 76.3112Z" fill="#D9D9D9"/>
<path d="M106.694 76.3112L132.675 61.3112L158.656 76.3112L132.675 91.3112L106.694 76.3112Z" fill="#C52922"/>
<path d="M158.656 106.311L184.636 91.3112L210.617 106.311L184.636 121.311L158.656 106.311Z" fill="#C52922"/>
<path d="M210.617 76.3112L184.636 91.3112L210.617 106.311L236.598 91.3112L210.617 76.3112Z" fill="#C52922"/>
<path d="M210.617 76.3112L184.636 61.3112L184.636 91.3112L210.617 76.3112Z" fill="#C52922"/>
<path d="M106.694 76.3112L80.7132 61.3111L106.694 46.3112L132.675 61.3112M106.694 76.3112L132.675 61.3112M106.694 76.3112L132.675 91.3112M132.675 61.3112L158.656 76.3112M132.675 91.3112L158.656 76.3112M132.675 91.3112L158.656 106.311M158.656 76.3112L184.636 91.3112M158.656 106.311L184.636 91.3112M158.656 106.311L184.636 121.311L210.617 106.311M184.636 91.3112L210.617 76.3112M184.636 91.3112L210.617 106.311M184.636 91.3112L184.636 61.3112L210.617 76.3112M210.617 76.3112L236.598 91.3112L210.617 106.311" stroke="#C52922" stroke-width="2"/>
<path d="M158.656 196.311L184.636 211.311V241.311L158.656 226.311V196.311Z" fill="#D9D9D9"/>
<path d="M158.656 196.311L184.636 211.311V241.311L158.656 226.311V196.311Z" fill="#D9D9D9"/>
<path d="M158.655 376.311L184.636 391.311V421.311L158.655 406.311V376.311Z" fill="#C52922"/>
<path d="M158.656 226.311L184.636 241.311V271.311L158.656 256.311V226.311Z" fill="#D9D9D9"/>
<path d="M158.656 226.311L184.636 241.311V271.311L158.656 256.311V226.311Z" fill="#D9D9D9"/>
<path d="M158.656 196.311L184.636 211.311V241.311L158.656 226.311V196.311Z" fill="#D9D9D9"/>
<path d="M158.656 196.311L184.636 211.311V241.311L158.656 226.311V196.311Z" fill="#C52922"/>
<path d="M158.656 226.311L184.636 241.311V271.311L158.656 256.311V226.311Z" fill="#D9D9D9"/>
<path d="M158.656 226.311L184.636 241.311V271.311L158.656 256.311V226.311Z" fill="#C52922"/>
<path d="M158.656 256.311L184.636 271.311V301.311L158.656 286.311L158.656 256.311Z" fill="#D9D9D9"/>
<path d="M158.656 256.311L184.636 271.311V301.311L158.656 286.311L158.656 256.311Z" fill="#C52922"/>
<path d="M158.656 286.311L184.636 301.311V331.311L158.656 316.311V286.311Z" fill="#D9D9D9"/>
<path d="M158.656 286.311L184.636 301.311V331.311L158.656 316.311V286.311Z" fill="#C52922"/>
<path d="M158.656 316.311L184.636 331.311L184.636 361.311L158.655 346.311L158.656 316.311Z" fill="#D9D9D9"/>
<path d="M158.656 316.311L184.636 331.311L184.636 361.311L158.655 346.311L158.656 316.311Z" fill="#C52922"/>
<path d="M158.655 346.311L184.636 361.311V391.311L158.655 376.311L158.655 346.311Z" fill="#D9D9D9"/>
<path d="M158.655 346.311L184.636 361.311V391.311L158.655 376.311L158.655 346.311Z" fill="#C52922"/>
<path d="M158.656 226.311V196.311L184.636 211.311V241.311M158.656 226.311L184.636 241.311M158.656 226.311V256.311M184.636 241.311V271.311M158.655 376.311V406.311L184.636 421.311V391.311M158.655 376.311L184.636 391.311M158.655 376.311L158.655 346.311M184.636 391.311V361.311M158.656 256.311L184.636 271.311M158.656 256.311L158.656 286.311M184.636 271.311V301.311M158.656 286.311L184.636 301.311M158.656 286.311V316.311M184.636 301.311V331.311M158.656 316.311L184.636 331.311M158.656 316.311L158.655 346.311M184.636 331.311L184.636 361.311M158.655 346.311L184.636 361.311" stroke="#C52922" stroke-width="2"/>
<path d="M158.655 16.3112L184.636 1.31121L210.617 16.3112C210.617 16.3112 194.782 25.4534 184.636 31.3112C174.49 25.4534 158.655 16.3112 158.655 16.3112Z" fill="#D9D9D9"/>
<path d="M158.655 16.3112L184.636 1.31121L210.617 16.3112C210.617 16.3112 194.782 25.4534 184.636 31.3112C174.49 25.4534 158.655 16.3112 158.655 16.3112Z" fill="#D9D9D9"/>
<path d="M184.636 31.3112C194.782 25.4534 210.617 16.3112 210.617 16.3112L236.598 31.3112L210.617 46.3112C210.617 46.3112 194.782 37.1691 184.636 31.3112Z" fill="#D9D9D9"/>
<path d="M184.636 31.3112C194.782 25.4534 210.617 16.3112 210.617 16.3112L236.598 31.3112L210.617 46.3112C210.617 46.3112 194.782 37.1691 184.636 31.3112Z" fill="#D9D9D9"/>
<path d="M158.655 16.3112L184.636 1.31121L210.617 16.3112C210.617 16.3112 194.782 25.4534 184.636 31.3112C174.49 25.4534 158.655 16.3112 158.655 16.3112Z" fill="#22519D"/>
<path d="M184.636 31.3112C194.782 25.4534 210.617 16.3112 210.617 16.3112L236.598 31.3112L210.617 46.3112C210.617 46.3112 194.782 37.1691 184.636 31.3112Z" fill="#D9D9D9"/>
<path d="M184.636 31.3112C194.782 25.4534 210.617 16.3112 210.617 16.3112L236.598 31.3112L210.617 46.3112C210.617 46.3112 194.782 37.1691 184.636 31.3112Z" fill="#22519D"/>
<path d="M210.617 46.3112L236.598 31.3112L262.578 46.3112L236.598 61.3112L210.617 46.3112Z" fill="#D9D9D9"/>
<path d="M210.617 46.3112L236.598 31.3112L262.578 46.3112L236.598 61.3112L210.617 46.3112Z" fill="#22519D"/>
<path d="M236.598 61.3112L262.578 46.3112L288.559 61.3112L262.579 76.3112L236.598 61.3112Z" fill="#22519D"/>
<path d="M184.636 31.3112L158.655 46.3112L184.636 61.3112L184.636 31.3112Z" fill="#22519D"/>
<path d="M132.675 31.3112L158.655 46.3112L184.636 31.3112L158.655 16.3112L132.675 31.3112Z" fill="#22519D"/>
<path d="M158.655 46.3112L132.675 31.3112L158.655 16.3112M158.655 46.3112L184.636 61.3112L184.636 31.3112M158.655 46.3112L184.636 31.3112M158.655 16.3112C158.655 16.3112 174.49 25.4534 184.636 31.3112M158.655 16.3112L184.636 1.31121L210.617 16.3112M158.655 16.3112L184.636 31.3112M184.636 31.3112C194.782 25.4534 210.617 16.3112 210.617 16.3112M184.636 31.3112C194.782 37.1691 210.617 46.3112 210.617 46.3112M210.617 16.3112L236.598 31.3112M210.617 46.3112L236.598 31.3112M210.617 46.3112L236.598 61.3112M236.598 31.3112L262.578 46.3112M236.598 61.3112L262.578 46.3112M236.598 61.3112L262.579 76.3112L288.559 61.3112L262.578 46.3112" stroke="#22519D" stroke-width="2"/>
<path d="M2.77118 106.311L28.7519 91.3113L54.7327 106.311L28.7519 121.311L2.77118 106.311Z" fill="#D9D9D9"/>
<path d="M28.7519 91.3113L54.7327 76.3113L80.7134 91.3113L54.7327 106.311L28.7519 91.3113Z" fill="#D9D9D9"/>
<path d="M2.77118 106.311L28.7519 91.3113L54.7327 106.311L28.7519 121.311L2.77118 106.311Z" fill="#D9D9D9"/>
<path d="M28.7519 91.3113L54.7327 76.3113L80.7134 91.3113L54.7327 106.311L28.7519 91.3113Z" fill="#D9D9D9"/>
<path d="M158.656 196.311L184.636 181.311L210.617 196.311L184.636 211.311L158.656 196.311Z" fill="#C52922"/>
<path d="M184.636 181.311L210.617 166.311L236.598 181.311L210.617 196.311L184.636 181.311Z" fill="#C52922"/>
<path d="M210.617 166.311L236.598 151.311L262.579 166.311L236.598 181.311L210.617 166.311Z" fill="#C52922"/>
<path d="M236.598 151.311L262.579 136.311L288.559 151.311L262.579 166.311L236.598 151.311Z" fill="#C52922"/>
<path d="M262.579 136.311L288.559 121.311L314.54 136.311L288.559 151.311L262.579 136.311Z" fill="#C52922"/>
<path d="M288.559 121.311L314.54 106.311L340.521 121.311L314.54 136.311L288.559 121.311Z" fill="#C52922"/>
<path d="M314.54 106.311L340.521 91.3115L366.502 106.311C366.502 106.311 350.667 115.454 340.521 121.311L314.54 106.311Z" fill="#C52922"/>
<path d="M28.7519 121.311L54.7327 106.311L80.7135 121.311L54.7327 136.311L28.7519 121.311Z" fill="#D9D9D9"/>
<path d="M54.7327 106.311L80.7134 91.3113L106.694 106.311L80.7135 121.311L54.7327 106.311Z" fill="#D9D9D9"/>
<path d="M28.7519 121.311L54.7327 106.311L80.7135 121.311L54.7327 136.311L28.7519 121.311Z" fill="#D9D9D9"/>
<path d="M54.7327 106.311L80.7134 91.3113L106.694 106.311L80.7135 121.311L54.7327 106.311Z" fill="#D9D9D9"/>
<path d="M2.77118 106.311L28.7519 91.3113L54.7327 106.311L28.7519 121.311L2.77118 106.311Z" fill="#D9D9D9"/>
<path d="M28.7519 91.3113L54.7327 76.3113L80.7134 91.3113L54.7327 106.311L28.7519 91.3113Z" fill="#D9D9D9"/>
<path d="M2.77118 106.311L28.7519 91.3113L54.7327 106.311L28.7519 121.311L2.77118 106.311Z" fill="#C52922"/>
<path d="M28.7519 91.3113L54.7327 76.3113L80.7134 91.3113L54.7327 106.311L28.7519 91.3113Z" fill="#C52922"/>
<path d="M28.7519 121.311L54.7327 106.311L80.7135 121.311L54.7327 136.311L28.7519 121.311Z" fill="#D9D9D9"/>
<path d="M54.7327 106.311L80.7134 91.3113L106.694 106.311L80.7135 121.311L54.7327 106.311Z" fill="#D9D9D9"/>
<path d="M28.7519 121.311L54.7327 106.311L80.7135 121.311L54.7327 136.311L28.7519 121.311Z" fill="#C52922"/>
<path d="M54.7327 106.311L80.7134 91.3113L106.694 106.311L80.7135 121.311L54.7327 106.311Z" fill="#C52922"/>
<path d="M54.7327 136.311L80.7135 121.311L106.694 136.311L80.7135 151.311L54.7327 136.311Z" fill="#D9D9D9"/>
<path d="M80.7135 121.311L106.694 106.311L132.675 121.311L106.694 136.311L80.7135 121.311Z" fill="#D9D9D9"/>
<path d="M54.7327 136.311L80.7135 121.311L106.694 136.311L80.7135 151.311L54.7327 136.311Z" fill="#C52922"/>
<path d="M80.7135 121.311L106.694 106.311L132.675 121.311L106.694 136.311L80.7135 121.311Z" fill="#C52922"/>
<path d="M80.7135 151.311L106.694 136.311L132.675 151.311L106.694 166.311L80.7135 151.311Z" fill="#D9D9D9"/>
<path d="M106.694 136.311L132.675 121.311L158.656 136.311L132.675 151.311L106.694 136.311Z" fill="#D9D9D9"/>
<path d="M80.7135 151.311L106.694 136.311L132.675 151.311L106.694 166.311L80.7135 151.311Z" fill="#C52922"/>
<path d="M106.694 136.311L132.675 121.311L158.656 136.311L132.675 151.311L106.694 136.311Z" fill="#C52922"/>
<path d="M106.694 166.311L132.675 151.311L158.656 166.311L132.675 181.311L106.694 166.311Z" fill="#D9D9D9"/>
<path d="M132.675 151.311L158.656 136.311L184.636 151.311L158.656 166.311L132.675 151.311Z" fill="#D9D9D9"/>
<path d="M106.694 166.311L132.675 151.311L158.656 166.311L132.675 181.311L106.694 166.311Z" fill="#C52922"/>
<path d="M132.675 151.311L158.656 136.311L184.636 151.311L158.656 166.311L132.675 151.311Z" fill="#C52922"/>
<path d="M132.675 181.311L158.656 166.311L184.636 181.311L158.656 196.311L132.675 181.311Z" fill="#D9D9D9"/>
<path d="M158.656 166.311L184.636 151.311L210.617 166.311L184.636 181.311L158.656 166.311Z" fill="#D9D9D9"/>
<path d="M184.636 151.311L210.617 136.311L236.598 151.311L210.617 166.311L184.636 151.311Z" fill="#D9D9D9"/>
<path d="M210.617 136.311L236.598 121.311L262.579 136.311L236.598 151.311L210.617 136.311Z" fill="#D9D9D9"/>
<path d="M236.598 121.311L262.579 106.312L288.559 121.311L262.579 136.311L236.598 121.311Z" fill="#D9D9D9"/>
<path d="M262.579 106.312L288.559 91.3115L314.54 106.311L288.559 121.311L262.579 106.312Z" fill="#D9D9D9"/>
<path d="M288.559 91.3115L314.54 76.3115L340.521 91.3115L314.54 106.311L288.559 91.3115Z" fill="#D9D9D9"/>
<path d="M132.675 181.311L158.656 166.311L184.636 181.311L158.656 196.311L132.675 181.311Z" fill="#C52922"/>
<path d="M158.656 166.311L184.636 151.311L210.617 166.311L184.636 181.311L158.656 166.311Z" fill="#C52922"/>
<path d="M184.636 151.311L210.617 136.311L236.598 151.311L210.617 166.311L184.636 151.311Z" fill="#C52922"/>
<path d="M210.617 136.311L236.598 121.311L262.579 136.311L236.598 151.311L210.617 136.311Z" fill="#C52922"/>
<path d="M236.598 121.311L262.579 106.312L288.559 121.311L262.579 136.311L236.598 121.311Z" fill="#C52922"/>
<path d="M262.579 106.312L288.559 91.3115L314.54 106.311L288.559 121.311L262.579 106.312Z" fill="#C52922"/>
<path d="M288.559 91.3115L314.54 76.3115L340.521 91.3115L314.54 106.311L288.559 91.3115Z" fill="#C52922"/>
<path d="M28.7519 91.3113L2.77118 106.311L28.7519 121.311M28.7519 91.3113L54.7327 106.311M28.7519 91.3113L54.7327 76.3113L80.7134 91.3113M54.7327 106.311L28.7519 121.311M54.7327 106.311L80.7134 91.3113M54.7327 106.311L80.7135 121.311M28.7519 121.311L54.7327 136.311M80.7134 91.3113L106.694 106.311M158.656 196.311L184.636 181.311M158.656 196.311L184.636 211.311L210.617 196.311M158.656 196.311L132.675 181.311M184.636 181.311L210.617 196.311M184.636 181.311L210.617 166.311M184.636 181.311L158.656 166.311M210.617 196.311L236.598 181.311M210.617 166.311L236.598 181.311M210.617 166.311L236.598 151.311M210.617 166.311L184.636 151.311M236.598 181.311L262.579 166.311M236.598 151.311L262.579 166.311M236.598 151.311L262.579 136.311M236.598 151.311L210.617 136.311M262.579 166.311L288.559 151.311M262.579 136.311L288.559 151.311M262.579 136.311L288.559 121.311M262.579 136.311L236.598 121.311M288.559 151.311L314.54 136.311M288.559 121.311L314.54 136.311M288.559 121.311L314.54 106.311M288.559 121.311L262.579 106.312M314.54 136.311L340.521 121.311M314.54 106.311L340.521 121.311M314.54 106.311L340.521 91.3115M314.54 106.311L288.559 91.3115M340.521 121.311C350.667 115.454 366.502 106.311 366.502 106.311L340.521 91.3115M340.521 91.3115L314.54 76.3115L288.559 91.3115M80.7135 121.311L54.7327 136.311M80.7135 121.311L106.694 106.311M80.7135 121.311L106.694 136.311M54.7327 136.311L80.7135 151.311M106.694 106.311L132.675 121.311M106.694 136.311L80.7135 151.311M106.694 136.311L132.675 121.311M106.694 136.311L132.675 151.311M80.7135 151.311L106.694 166.311M132.675 121.311L158.656 136.311M132.675 151.311L106.694 166.311M132.675 151.311L158.656 136.311M132.675 151.311L158.656 166.311M106.694 166.311L132.675 181.311M158.656 136.311L184.636 151.311M158.656 166.311L132.675 181.311M158.656 166.311L184.636 151.311M184.636 151.311L210.617 136.311M210.617 136.311L236.598 121.311M236.598 121.311L262.579 106.312M262.579 106.312L288.559 91.3115" stroke="#C52922" stroke-width="2"/>
<path d="M210.617 196.311L184.636 211.311V241.311L210.617 226.311V196.311Z" fill="#D9D9D9"/>
<path d="M210.617 196.311L184.636 211.311V241.311L210.617 226.311V196.311Z" fill="#D9D9D9"/>
<path d="M210.617 376.311L184.636 391.311V421.311L210.617 406.311V376.311Z" fill="#C52922"/>
<path d="M210.617 226.311L184.636 241.311V271.311L210.617 256.311V226.311Z" fill="#D9D9D9"/>
<path d="M210.617 226.311L184.636 241.311V271.311L210.617 256.311V226.311Z" fill="#D9D9D9"/>
<path d="M210.617 196.311L184.636 211.311V241.311L210.617 226.311V196.311Z" fill="#D9D9D9"/>
<path d="M210.617 196.311L184.636 211.311V241.311L210.617 226.311V196.311Z" fill="#C52922"/>
<path d="M210.617 226.311L184.636 241.311V271.311L210.617 256.311V226.311Z" fill="#D9D9D9"/>
<path d="M210.617 226.311L184.636 241.311V271.311L210.617 256.311V226.311Z" fill="#C52922"/>
<path d="M210.617 256.311L184.636 271.311V301.311L210.617 286.311L210.617 256.311Z" fill="#D9D9D9"/>
<path d="M210.617 256.311L184.636 271.311V301.311L210.617 286.311L210.617 256.311Z" fill="#C52922"/>
<path d="M210.617 286.311L184.636 301.311V331.311L210.617 316.311V286.311Z" fill="#D9D9D9"/>
<path d="M210.617 286.311L184.636 301.311V331.311L210.617 316.311V286.311Z" fill="#C52922"/>
<path d="M210.617 316.311L184.636 331.311L184.636 361.311L210.617 346.311L210.617 316.311Z" fill="#D9D9D9"/>
<path d="M210.617 316.311L184.636 331.311L184.636 361.311L210.617 346.311L210.617 316.311Z" fill="#C52922"/>
<path d="M210.617 346.311L184.636 361.311V391.311L210.617 376.311L210.617 346.311Z" fill="#D9D9D9"/>
<path d="M210.617 346.311L184.636 361.311V391.311L210.617 376.311L210.617 346.311Z" fill="#C52922"/>
<path d="M210.617 226.311V196.311L184.636 211.311V241.311M210.617 226.311L184.636 241.311M210.617 226.311V256.311M184.636 241.311V271.311M210.617 376.311V406.311L184.636 421.311V391.311M210.617 376.311L184.636 391.311M210.617 376.311L210.617 346.311M184.636 391.311V361.311M210.617 256.311L184.636 271.311M210.617 256.311L210.617 286.311M184.636 271.311V301.311M210.617 286.311L184.636 301.311M210.617 286.311V316.311M184.636 301.311V331.311M210.617 316.311L184.636 331.311M210.617 316.311L210.617 346.311M184.636 331.311L184.636 361.311M210.617 346.311L184.636 361.311" stroke="#C52922" stroke-width="2"/>
<path d="M2.77082 286.311L28.7516 301.311V331.311C28.7516 331.311 15.0179 323.366 9.16 313.22C3.30213 303.074 2.77082 286.311 2.77082 286.311Z" fill="#3B863E"/>
<path d="M28.7516 301.311L54.7323 316.311V346.311L28.7516 331.311V301.311Z" fill="#3B863E"/>
<path d="M80.7131 331.311L106.694 346.311V376.311L80.7131 361.311V331.311Z" fill="#3B863E"/>
<path d="M106.694 346.311L132.675 361.311V391.311L106.694 376.311V346.311Z" fill="#3B863E"/>
<path d="M2.77103 136.311L28.7518 151.311V181.311C28.7518 181.311 12.9171 172.169 2.77103 166.311C2.77103 154.596 2.77103 136.311 2.77103 136.311Z" fill="#D9D9D9"/>
<path d="M28.7518 151.311L54.7325 166.311V196.311L28.7518 181.311V151.311Z" fill="#D9D9D9"/>
<path d="M54.7325 166.311L80.7133 181.311V211.311L54.7325 196.311V166.311Z" fill="#D9D9D9"/>
<path d="M80.7133 181.311L106.694 196.311V226.311L80.7133 211.311V181.311Z" fill="#D9D9D9"/>
<path d="M106.694 196.311L132.675 211.311V241.311L106.694 226.311V196.311Z" fill="#D9D9D9"/>
<path d="M2.77103 136.311L28.7518 151.311V181.311C28.7518 181.311 12.9171 172.169 2.77103 166.311C2.77103 154.596 2.77103 136.311 2.77103 136.311Z" fill="#D9D9D9"/>
<path d="M28.7518 151.311L54.7325 166.311V196.311L28.7518 181.311V151.311Z" fill="#D9D9D9"/>
<path d="M54.7325 166.311L80.7133 181.311V211.311L54.7325 196.311V166.311Z" fill="#D9D9D9"/>
<path d="M80.7133 181.311L106.694 196.311V226.311L80.7133 211.311V181.311Z" fill="#D9D9D9"/>
<path d="M106.694 196.311L132.675 211.311V241.311L106.694 226.311V196.311Z" fill="#D9D9D9"/>
<path d="M2.77103 136.311L28.7518 151.311V181.311C28.7518 181.311 12.9171 172.169 2.77103 166.311C2.77103 154.596 2.77103 136.311 2.77103 136.311Z" fill="#D9D9D9"/>
<path d="M28.7518 151.311L54.7325 166.311V196.311L28.7518 181.311V151.311Z" fill="#D9D9D9"/>
<path d="M54.7325 166.311L80.7133 181.311V211.311L54.7325 196.311V166.311Z" fill="#D9D9D9"/>
<path d="M80.7133 181.311L106.694 196.311V226.311L80.7133 211.311V181.311Z" fill="#D9D9D9"/>
<path d="M106.694 196.311L132.675 211.311V241.311L106.694 226.311V196.311Z" fill="#D9D9D9"/>
<path d="M2.77103 136.311L28.7518 151.311V181.311C28.7518 181.311 12.9171 172.169 2.77103 166.311C2.77103 154.596 2.77103 136.311 2.77103 136.311Z" fill="#3B863E"/>
<path d="M28.7518 151.311L54.7325 166.311V196.311L28.7518 181.311V151.311Z" fill="#3B863E"/>
<path d="M54.7325 166.311L80.7133 181.311V211.311L54.7325 196.311V166.311Z" fill="#3B863E"/>
<path d="M80.7133 181.311L106.694 196.311V226.311L80.7133 211.311V181.311Z" fill="#3B863E"/>
<path d="M106.694 196.311L132.675 211.311V241.311L106.694 226.311V196.311Z" fill="#3B863E"/>
<path d="M2.77103 166.311C12.9171 172.169 28.7518 181.311 28.7518 181.311V211.311L2.77103 196.311C2.77103 196.311 2.77103 178.027 2.77103 166.311Z" fill="#D9D9D9"/>
<path d="M28.7518 181.311L54.7325 196.311L54.7325 226.311L28.7518 211.311V181.311Z" fill="#D9D9D9"/>
<path d="M54.7325 196.311L80.7133 211.311L80.7133 241.311L54.7325 226.311L54.7325 196.311Z" fill="#D9D9D9"/>
<path d="M80.7133 211.311L106.694 226.311L106.694 256.311L80.7133 241.311L80.7133 211.311Z" fill="#D9D9D9"/>
<path d="M106.694 226.311L132.675 241.311V271.311L106.694 256.311L106.694 226.311Z" fill="#D9D9D9"/>
<path d="M2.77103 166.311C12.9171 172.169 28.7518 181.311 28.7518 181.311V211.311L2.77103 196.311C2.77103 196.311 2.77103 178.027 2.77103 166.311Z" fill="#3B863E"/>
<path d="M28.7518 181.311L54.7325 196.311L54.7325 226.311L28.7518 211.311V181.311Z" fill="#3B863E"/>
<path d="M54.7325 196.311L80.7133 211.311L80.7133 241.311L54.7325 226.311L54.7325 196.311Z" fill="#3B863E"/>
<path d="M80.7133 211.311L106.694 226.311L106.694 256.311L80.7133 241.311L80.7133 211.311Z" fill="#3B863E"/>
<path d="M106.694 226.311L132.675 241.311V271.311L106.694 256.311L106.694 226.311Z" fill="#3B863E"/>
<path d="M2.77103 196.311L28.7518 211.311V241.311L2.77103 226.311V196.311Z" fill="#D9D9D9"/>
<path d="M28.7518 211.311L54.7325 226.311V256.311L28.7518 241.311V211.311Z" fill="#D9D9D9"/>
<path d="M80.7133 241.311L106.694 256.311V286.311L80.7133 271.311V241.311Z" fill="#D9D9D9"/>
<path d="M106.694 256.311L132.675 271.311V301.311L106.694 286.311V256.311Z" fill="#D9D9D9"/>
<path d="M2.77103 196.311L28.7518 211.311V241.311L2.77103 226.311V196.311Z" fill="#3B863E"/>
<path d="M28.7518 211.311L54.7325 226.311V256.311L28.7518 241.311V211.311Z" fill="#3B863E"/>
<path d="M80.7133 241.311L106.694 256.311V286.311L80.7133 271.311V241.311Z" fill="#3B863E"/>
<path d="M106.694 256.311L132.675 271.311V301.311L106.694 286.311V256.311Z" fill="#3B863E"/>
<path d="M2.77103 226.311L28.7518 241.311L28.7516 271.311L2.77081 256.311L2.77103 226.311Z" fill="#D9D9D9"/>
<path d="M28.7518 241.311L54.7325 256.311L54.7323 286.311L28.7516 271.311L28.7518 241.311Z" fill="#D9D9D9"/>
<path d="M54.7325 256.311L80.7133 271.311L80.7131 301.311L54.7323 286.311L54.7325 256.311Z" fill="#D9D9D9"/>
<path d="M80.7133 271.311L106.694 286.311L106.694 316.311L80.7131 301.311L80.7133 271.311Z" fill="#D9D9D9"/>
<path d="M106.694 286.311L132.675 301.311L132.675 331.311L106.694 316.311L106.694 286.311Z" fill="#D9D9D9"/>
<path d="M2.77103 226.311L28.7518 241.311L28.7516 271.311L2.77081 256.311L2.77103 226.311Z" fill="#3B863E"/>
<path d="M28.7518 241.311L54.7325 256.311L54.7323 286.311L28.7516 271.311L28.7518 241.311Z" fill="#3B863E"/>
<path d="M54.7325 256.311L80.7133 271.311L80.7131 301.311L54.7323 286.311L54.7325 256.311Z" fill="#3B863E"/>
<path d="M80.7133 271.311L106.694 286.311L106.694 316.311L80.7131 301.311L80.7133 271.311Z" fill="#3B863E"/>
<path d="M106.694 286.311L132.675 301.311L132.675 331.311L106.694 316.311L106.694 286.311Z" fill="#3B863E"/>
<path d="M2.77081 256.311L28.7516 271.311V301.311L2.77082 286.311L2.77081 256.311Z" fill="#D9D9D9"/>
<path d="M28.7516 271.311L54.7323 286.311L54.7323 316.311L28.7516 301.311V271.311Z" fill="#D9D9D9"/>
<path d="M54.7323 286.311L80.7131 301.311L80.7131 331.311L54.7323 316.311L54.7323 286.311Z" fill="#D9D9D9"/>
<path d="M80.7131 301.311L106.694 316.311L106.694 346.311L80.7131 331.311L80.7131 301.311Z" fill="#D9D9D9"/>
<path d="M106.694 316.311L132.675 331.311V361.311L106.694 346.311L106.694 316.311Z" fill="#D9D9D9"/>
<path d="M2.77081 256.311L28.7516 271.311V301.311L2.77082 286.311L2.77081 256.311Z" fill="#3B863E"/>
<path d="M28.7516 271.311L54.7323 286.311L54.7323 316.311L28.7516 301.311V271.311Z" fill="#3B863E"/>
<path d="M54.7323 286.311L80.7131 301.311L80.7131 331.311L54.7323 316.311L54.7323 286.311Z" fill="#3B863E"/>
<path d="M80.7131 301.311L106.694 316.311L106.694 346.311L80.7131 331.311L80.7131 301.311Z" fill="#3B863E"/>
<path d="M106.694 316.311L132.675 331.311V361.311L106.694 346.311L106.694 316.311Z" fill="#3B863E"/>
<path d="M28.7518 151.311L2.77103 136.311C2.77103 136.311 2.77103 154.596 2.77103 166.311M28.7518 151.311L54.7325 166.311M28.7518 151.311V181.311M54.7325 166.311L80.7133 181.311M54.7325 166.311V196.311M80.7133 181.311L106.694 196.311M80.7133 181.311V211.311M106.694 196.311L132.675 211.311V241.311M106.694 196.311V226.311M2.77082 286.311L28.7516 301.311M2.77082 286.311C2.77082 286.311 3.30213 303.074 9.16 313.22C15.0179 323.366 28.7516 331.311 28.7516 331.311M2.77082 286.311L2.77081 256.311M28.7516 301.311V331.311M28.7516 301.311L54.7323 316.311M28.7516 301.311V271.311M28.7516 331.311L54.7323 346.311V316.311M54.7323 316.311L80.7131 331.311M54.7323 316.311L54.7323 286.311M80.7131 331.311V361.311L106.694 376.311M80.7131 331.311L106.694 346.311M80.7131 331.311L80.7131 301.311M106.694 346.311V376.311M106.694 346.311L132.675 361.311M106.694 346.311L106.694 316.311M106.694 376.311L132.675 391.311V361.311M132.675 361.311V331.311M28.7518 181.311C28.7518 181.311 12.9171 172.169 2.77103 166.311M28.7518 181.311L54.7325 196.311M28.7518 181.311V211.311M2.77103 166.311C2.77103 178.027 2.77103 196.311 2.77103 196.311M54.7325 196.311L80.7133 211.311M54.7325 196.311L54.7325 226.311M80.7133 211.311L106.694 226.311M80.7133 211.311L80.7133 241.311M106.694 226.311L132.675 241.311M106.694 226.311L106.694 256.311M132.675 241.311V271.311M28.7518 211.311L2.77103 196.311M28.7518 211.311L54.7325 226.311M28.7518 211.311V241.311M2.77103 196.311V226.311M54.7325 226.311L80.7133 241.311M54.7325 226.311V256.311M80.7133 241.311L106.694 256.311M80.7133 241.311V271.311M106.694 256.311L132.675 271.311M106.694 256.311V286.311M132.675 271.311V301.311M28.7518 241.311L2.77103 226.311M28.7518 241.311L54.7325 256.311M28.7518 241.311L28.7516 271.311M2.77103 226.311L2.77081 256.311M54.7325 256.311L80.7133 271.311M54.7325 256.311L54.7323 286.311M80.7133 271.311L106.694 286.311M80.7133 271.311L80.7131 301.311M106.694 286.311L132.675 301.311M106.694 286.311L106.694 316.311M132.675 301.311L132.675 331.311M28.7516 271.311L2.77081 256.311M28.7516 271.311L54.7323 286.311M54.7323 286.311L80.7131 301.311M80.7131 301.311L106.694 316.311M106.694 316.311L132.675 331.311" stroke="#3B863E" stroke-width="2"/>
<circle cx="129.675" cy="45.3112" r="4.2359" fill="#22519D"/>
<circle cx="239.598" cy="77.3112" r="4.2359" fill="#C52922"/>
<path d="M366.502 286.311L340.521 301.311V331.311C340.521 331.311 354.267 323.365 360.125 313.219C365.983 303.073 366.502 286.311 366.502 286.311Z" fill="black"/>
<path d="M340.521 301.311L314.54 316.311V346.311L340.521 331.311V301.311Z" fill="black"/>
<path d="M314.54 316.311L288.559 331.311V361.311L314.54 346.311V316.311Z" fill="black"/>
<path d="M288.559 331.311L262.579 346.311V376.311L288.559 361.311V331.311Z" fill="black"/>
<path d="M262.579 346.311L236.598 361.311V391.311L262.579 376.311V346.311Z" fill="black"/>
<path d="M366.502 136.311L340.521 151.311V181.311L366.502 166.311V136.311Z" fill="#D9D9D9"/>
<path d="M340.521 151.311L314.54 166.311V196.311L340.521 181.311V151.311Z" fill="#D9D9D9"/>
<path d="M288.559 181.311L262.578 196.311V226.311L288.559 211.311V181.311Z" fill="#D9D9D9"/>
<path d="M262.578 196.311L236.598 211.311V241.311L262.578 226.311V196.311Z" fill="#D9D9D9"/>
<path d="M366.502 136.311L340.521 151.311V181.311L366.502 166.311V136.311Z" fill="#D9D9D9"/>
<path d="M340.521 151.311L314.54 166.311V196.311L340.521 181.311V151.311Z" fill="#D9D9D9"/>
<path d="M288.559 181.311L262.578 196.311V226.311L288.559 211.311V181.311Z" fill="#D9D9D9"/>
<path d="M262.578 196.311L236.598 211.311V241.311L262.578 226.311V196.311Z" fill="#D9D9D9"/>
<path d="M366.502 136.311L340.521 151.311V181.311L366.502 166.311V136.311Z" fill="#D9D9D9"/>
<path d="M340.521 151.311L314.54 166.311V196.311L340.521 181.311V151.311Z" fill="#D9D9D9"/>
<path d="M288.559 181.311L262.578 196.311V226.311L288.559 211.311V181.311Z" fill="#D9D9D9"/>
<path d="M262.578 196.311L236.598 211.311V241.311L262.578 226.311V196.311Z" fill="#D9D9D9"/>
<path d="M366.502 136.311L340.521 151.311V181.311L366.502 166.311V136.311Z" fill="black"/>
<path d="M340.521 151.311L314.54 166.311V196.311L340.521 181.311V151.311Z" fill="black"/>
<path d="M288.559 181.311L262.578 196.311V226.311L288.559 211.311V181.311Z" fill="black"/>
<path d="M262.578 196.311L236.598 211.311V241.311L262.578 226.311V196.311Z" fill="black"/>
<path d="M366.502 166.311L340.521 181.311V211.311L366.502 196.311V166.311Z" fill="#D9D9D9"/>
<path d="M340.521 181.311L314.54 196.311L314.54 226.311L340.521 211.311V181.311Z" fill="#D9D9D9"/>
<path d="M288.559 211.311L262.578 226.311L262.579 256.311L288.559 241.311L288.559 211.311Z" fill="#D9D9D9"/>
<path d="M262.578 226.311L236.598 241.311V271.311L262.579 256.311L262.578 226.311Z" fill="#D9D9D9"/>
<path d="M366.502 166.311L340.521 181.311V211.311L366.502 196.311V166.311Z" fill="black"/>
<path d="M340.521 181.311L314.54 196.311L314.54 226.311L340.521 211.311V181.311Z" fill="black"/>
<path d="M288.559 211.311L262.578 226.311L262.579 256.311L288.559 241.311L288.559 211.311Z" fill="black"/>
<path d="M262.578 226.311L236.598 241.311V271.311L262.579 256.311L262.578 226.311Z" fill="black"/>
<path d="M366.502 196.311L340.521 211.311V241.311L366.502 226.311V196.311Z" fill="#D9D9D9"/>
<path d="M340.521 211.311L314.54 226.311V256.311L340.521 241.311V211.311Z" fill="#D9D9D9"/>
<path d="M288.559 241.311L262.579 256.311V286.311L288.559 271.311V241.311Z" fill="#D9D9D9"/>
<path d="M262.579 256.311L236.598 271.311V301.311L262.579 286.311V256.311Z" fill="#D9D9D9"/>
<path d="M366.502 196.311L340.521 211.311V241.311L366.502 226.311V196.311Z" fill="black"/>
<path d="M340.521 211.311L314.54 226.311V256.311L340.521 241.311V211.311Z" fill="black"/>
<path d="M288.559 241.311L262.579 256.311V286.311L288.559 271.311V241.311Z" fill="black"/>
<path d="M262.579 256.311L236.598 271.311V301.311L262.579 286.311V256.311Z" fill="black"/>
<path d="M366.502 226.311L340.521 241.311L340.521 271.311L366.502 256.311L366.502 226.311Z" fill="#D9D9D9"/>
<path d="M340.521 241.311L314.54 256.311L314.54 286.311L340.521 271.311L340.521 241.311Z" fill="#D9D9D9"/>
<path d="M288.559 271.311L262.579 286.311L262.579 316.311L288.559 301.311L288.559 271.311Z" fill="#D9D9D9"/>
<path d="M262.579 286.311L236.598 301.311L236.598 331.311L262.579 316.311L262.579 286.311Z" fill="#D9D9D9"/>
<path d="M366.502 226.311L340.521 241.311L340.521 271.311L366.502 256.311L366.502 226.311Z" fill="black"/>
<path d="M340.521 241.311L314.54 256.311L314.54 286.311L340.521 271.311L340.521 241.311Z" fill="black"/>
<path d="M288.559 271.311L262.579 286.311L262.579 316.311L288.559 301.311L288.559 271.311Z" fill="black"/>
<path d="M262.579 286.311L236.598 301.311L236.598 331.311L262.579 316.311L262.579 286.311Z" fill="black"/>
<path d="M366.502 256.311L340.521 271.311V301.311L366.502 286.311L366.502 256.311Z" fill="#D9D9D9"/>
<path d="M340.521 271.311L314.54 286.311L314.54 316.311L340.521 301.311V271.311Z" fill="#D9D9D9"/>
<path d="M314.54 286.311L288.559 301.311L288.559 331.311L314.54 316.311L314.54 286.311Z" fill="#D9D9D9"/>
<path d="M288.559 301.311L262.579 316.311L262.579 346.311L288.559 331.311L288.559 301.311Z" fill="#D9D9D9"/>
<path d="M262.579 316.311L236.598 331.311V361.311L262.579 346.311L262.579 316.311Z" fill="#D9D9D9"/>
<path d="M366.502 256.311L340.521 271.311V301.311L366.502 286.311L366.502 256.311Z" fill="black"/>
<path d="M340.521 271.311L314.54 286.311L314.54 316.311L340.521 301.311V271.311Z" fill="black"/>
<path d="M314.54 286.311L288.559 301.311L288.559 331.311L314.54 316.311L314.54 286.311Z" fill="black"/>
<path d="M288.559 301.311L262.579 316.311L262.579 346.311L288.559 331.311L288.559 301.311Z" fill="black"/>
<path d="M262.579 316.311L236.598 331.311V361.311L262.579 346.311L262.579 316.311Z" fill="black"/>
<path d="M340.521 151.311L366.502 136.311V166.311M340.521 151.311L314.54 166.311V196.311M340.521 151.311V181.311M262.578 196.311L288.559 181.311V211.311M262.578 196.311L236.598 211.311V241.311M262.578 196.311V226.311M366.502 286.311L340.521 301.311M366.502 286.311C366.502 286.311 365.983 303.073 360.125 313.219C354.267 323.365 340.521 331.311 340.521 331.311M366.502 286.311L366.502 256.311M340.521 301.311V331.311M340.521 301.311L314.54 316.311M340.521 301.311V271.311M340.521 331.311L314.54 346.311M314.54 316.311V346.311M314.54 316.311L288.559 331.311M314.54 316.311L314.54 286.311M314.54 346.311L288.559 361.311M288.559 331.311V361.311M288.559 331.311L262.579 346.311M288.559 331.311L288.559 301.311M288.559 361.311L262.579 376.311M262.579 346.311V376.311M262.579 346.311L236.598 361.311M262.579 346.311L262.579 316.311M262.579 376.311L236.598 391.311V361.311M236.598 361.311V331.311M340.521 181.311L366.502 166.311M340.521 181.311L314.54 196.311M340.521 181.311V211.311M366.502 166.311V196.311M314.54 196.311L314.54 226.311M288.559 211.311L262.578 226.311M288.559 211.311L288.559 241.311M262.578 226.311L236.598 241.311M262.578 226.311L262.579 256.311M236.598 241.311V271.311M340.521 211.311L366.502 196.311M340.521 211.311L314.54 226.311M340.521 211.311V241.311M366.502 196.311V226.311M314.54 226.311V256.311M288.559 241.311L262.579 256.311M288.559 241.311V271.311M262.579 256.311L236.598 271.311M262.579 256.311V286.311M236.598 271.311V301.311M340.521 241.311L366.502 226.311M340.521 241.311L314.54 256.311M340.521 241.311L340.521 271.311M366.502 226.311L366.502 256.311M314.54 256.311L314.54 286.311M288.559 271.311L262.579 286.311M288.559 271.311L288.559 301.311M262.579 286.311L236.598 301.311M262.579 286.311L262.579 316.311M236.598 301.311L236.598 331.311M340.521 271.311L366.502 256.311M340.521 271.311L314.54 286.311M314.54 286.311L288.559 301.311M288.559 301.311L262.579 316.311M262.579 316.311L236.598 331.311" stroke="black" stroke-width="2"/>
<path d="M548.018 98.1311H518.99L497.534 198.918H458.59L480.045 98.1311H451.378L454.623 84.4284H551.083L548.018 98.1311Z" fill="black"/>
<path d="M539.586 128.061C545.716 125.056 551.966 122.892 558.337 121.57C564.828 120.127 572.04 119.406 579.973 119.406C587.665 119.406 594.036 120.007 599.084 121.209C604.133 122.411 608.159 124.154 611.164 126.438C614.169 128.722 616.273 131.426 617.475 134.551C618.677 137.676 619.278 141.222 619.278 145.189C619.278 147.473 619.097 149.937 618.737 152.581C618.496 155.225 618.196 157.449 617.835 159.252L609.361 198.918H580.333L577.088 187.379H576.006C572.16 191.586 567.652 194.831 562.484 197.115C557.435 199.278 552.387 200.36 547.339 200.36C544.454 200.36 541.629 199.939 538.865 199.098C536.1 198.257 533.636 196.994 531.472 195.312C529.309 193.509 527.566 191.285 526.244 188.641C524.922 185.876 524.261 182.571 524.261 178.724C524.261 172.474 525.943 167.546 529.309 163.94C532.795 160.214 537.302 157.449 542.831 155.646C548.481 153.723 554.791 152.521 561.762 152.04C568.854 151.559 575.946 151.319 583.038 151.319C583.278 150.117 583.579 148.434 583.939 146.271C584.3 143.987 584.48 142.004 584.48 140.321C584.48 138.157 583.879 136.174 582.677 134.371C581.595 132.448 579.251 131.486 575.646 131.486C571.439 131.486 568.313 132.748 566.27 135.272C564.347 137.676 563.085 140.621 562.484 144.107H536.16L539.586 128.061ZM581.054 159.793H577.809C574.323 159.793 571.318 160.274 568.794 161.235C566.39 162.077 564.407 163.219 562.844 164.661C561.402 166.103 560.32 167.726 559.599 169.529C558.878 171.332 558.517 173.135 558.517 174.938C558.517 177.823 559.238 179.986 560.681 181.429C562.243 182.871 564.046 183.592 566.09 183.592C568.614 183.592 571.078 182.691 573.482 180.888C576.006 179.085 577.569 176.681 578.17 173.676L581.054 159.793Z" fill="black"/>
<path d="M674.405 132.929C676.929 130.525 679.754 128.301 682.879 126.258C685.644 124.575 688.889 123.012 692.615 121.57C696.341 120.127 700.488 119.406 705.056 119.406C711.306 119.406 716.475 121.029 720.561 124.274C724.648 127.399 726.692 131.727 726.692 137.256C726.692 138.818 726.511 140.741 726.151 143.025C725.79 145.189 725.369 147.473 724.889 149.877C724.408 152.281 723.867 154.745 723.266 157.269C722.785 159.673 722.364 161.836 722.004 163.76L714.431 198.918H677.831L687.747 151.86C687.988 150.297 688.288 148.735 688.649 147.172C689.009 145.489 689.19 143.987 689.19 142.665C689.19 140.862 688.709 139.419 687.747 138.338C686.906 137.136 685.584 136.535 683.781 136.535C681.617 136.535 679.514 137.316 677.47 138.878C675.547 140.441 674.045 141.763 672.963 142.845L661.063 198.918H624.282L640.689 121.39H670.078L673.323 132.929H674.405Z" fill="black"/>
<path d="M790.948 155.646L781.753 198.918H742.628L752.545 152.581L734.875 84.4284H778.147L790.407 129.683L817.452 84.4284H836.924L790.948 155.646Z" fill="black"/>
<path d="M824.999 128.061C831.129 125.056 837.38 122.892 843.75 121.57C850.241 120.127 857.453 119.406 865.386 119.406C873.079 119.406 879.449 120.007 884.497 121.209C889.546 122.411 893.572 124.154 896.577 126.438C899.582 128.722 901.686 131.426 902.888 134.551C904.09 137.676 904.691 141.222 904.691 145.189C904.691 147.473 904.51 149.937 904.15 152.581C903.91 155.225 903.609 157.449 903.248 159.252L894.774 198.918H865.746L862.501 187.379H861.419C857.573 191.586 853.065 194.831 847.897 197.115C842.849 199.278 837.8 200.36 832.752 200.36C829.867 200.36 827.042 199.939 824.278 199.098C821.513 198.257 819.049 196.994 816.886 195.312C814.722 193.509 812.979 191.285 811.657 188.641C810.335 185.876 809.674 182.571 809.674 178.724C809.674 172.474 811.357 167.546 814.722 163.94C818.208 160.214 822.715 157.449 828.244 155.646C833.894 153.723 840.204 152.521 847.176 152.04C854.267 151.559 861.359 151.319 868.451 151.319C868.691 150.117 868.992 148.434 869.352 146.271C869.713 143.987 869.893 142.004 869.893 140.321C869.893 138.157 869.292 136.174 868.09 134.371C867.008 132.448 864.665 131.486 861.059 131.486C856.852 131.486 853.727 132.748 851.683 135.272C849.76 137.676 848.498 140.621 847.897 144.107H821.573L824.999 128.061ZM866.468 159.793H863.222C859.736 159.793 856.731 160.274 854.207 161.235C851.803 162.077 849.82 163.219 848.257 164.661C846.815 166.103 845.733 167.726 845.012 169.529C844.291 171.332 843.93 173.135 843.93 174.938C843.93 177.823 844.652 179.986 846.094 181.429C847.657 182.871 849.46 183.592 851.503 183.592C854.027 183.592 856.491 182.691 858.895 180.888C861.419 179.085 862.982 176.681 863.583 173.676L866.468 159.793Z" fill="black"/>
<path d="M978.75 121.39H1015.53L998.943 198.918H969.735L966.489 187.379H965.408C962.282 191.105 958.015 194.23 952.606 196.754C947.318 199.158 941.969 200.36 936.56 200.36C929.348 200.36 923.699 198.557 919.612 194.951C915.525 191.225 913.482 186.417 913.482 180.527C913.482 177.522 913.963 173.796 914.924 169.349C916.006 164.781 916.967 160.514 917.809 156.548L925.381 121.39H961.982L952.967 163.579C952.727 164.541 952.486 165.683 952.246 167.005C952.005 168.327 951.765 169.649 951.525 170.971C951.284 172.173 951.044 173.375 950.803 174.577C950.683 175.659 950.623 176.561 950.623 177.282C950.623 179.085 950.984 180.647 951.705 181.97C952.546 183.172 953.989 183.773 956.032 183.773C958.196 183.773 960.239 183.051 962.162 181.609C964.085 180.167 965.588 178.784 966.67 177.462L978.75 121.39Z" fill="black"/>
<path d="M457.615 222.263H496.74L475.464 321.607H512.065L509 336.752H433.275L457.615 222.263Z" fill="black"/>
<path d="M544.595 222.263H620.5L617.615 235.966H580.835L573.262 270.763H604.093L601.208 284.285H570.377L562.084 322.869H598.864L596.16 336.752H520.254L544.595 222.263Z" fill="black"/>
<path d="M710.817 336.752H668.627L666.103 308.085H632.748L619.946 336.752H602.458L655.646 222.263H698.376L710.817 336.752ZM638.697 294.923H664.841L660.694 245.882L638.697 294.923Z" fill="black"/>
<path d="M779.172 284.466H825.869L815.412 336.752H794.137L790.711 325.213H789.99C786.865 328.819 783.139 331.884 778.812 334.408C774.605 336.932 769.076 338.195 762.224 338.195C756.935 338.195 751.827 337.353 746.899 335.67C742.091 333.867 737.764 331.103 733.917 327.377C730.191 323.53 727.186 318.542 724.902 312.412C722.619 306.282 721.477 298.89 721.477 290.235C721.477 280.86 722.919 271.965 725.804 263.551C728.689 255.137 733.016 247.745 738.785 241.374C744.555 234.884 751.767 229.775 760.421 226.049C769.076 222.323 779.172 220.46 790.711 220.46C799.606 220.46 807.359 221.482 813.97 223.525C820.581 225.568 826.831 227.852 832.721 230.376L825.869 265.354H795.399C795.519 264.032 795.699 262.469 795.94 260.666C796.18 258.863 796.361 257 796.481 255.077C796.601 253.034 796.721 251.05 796.841 249.127C796.962 247.204 797.022 245.521 797.022 244.079C797.022 243.117 796.962 242.036 796.841 240.834C796.721 239.511 796.421 238.249 795.94 237.047C795.459 235.845 794.738 234.884 793.776 234.163C792.815 233.321 791.432 232.9 789.629 232.9C786.504 232.9 783.62 234.223 780.975 236.867C778.451 239.391 776.167 242.817 774.124 247.144C772.08 251.351 770.277 256.159 768.715 261.568C767.273 266.977 766.01 272.506 764.929 278.155C763.967 283.684 763.186 289.153 762.585 294.562C762.104 299.851 761.864 304.479 761.864 308.445C761.864 309.647 761.924 311.15 762.044 312.953C762.164 314.756 762.525 316.559 763.126 318.362C763.847 320.045 764.808 321.547 766.01 322.869C767.333 324.071 769.196 324.672 771.6 324.672C775.566 324.672 779.413 322.509 783.139 318.181C786.865 313.854 789.69 306.642 791.613 296.546H776.468L779.172 284.466Z" fill="black"/>
<path d="M878.985 295.825C878.384 298.469 877.904 300.753 877.543 302.676C877.182 304.599 877.002 306.402 877.002 308.085C877.002 312.292 878.445 315.657 881.329 318.181C884.334 320.706 888.722 321.968 894.491 321.968C898.698 321.968 902.124 321.246 904.768 319.804C907.533 318.362 909.756 316.439 911.439 314.035C913.242 311.631 914.624 308.866 915.586 305.741C916.668 302.616 917.569 299.31 918.29 295.825L933.616 222.263H950.023L934.337 296.185C933.135 301.955 931.392 307.364 929.108 312.412C926.825 317.46 923.519 321.908 919.192 325.754C914.985 329.6 909.516 332.665 902.785 334.949C896.054 337.113 887.7 338.195 877.723 338.195C863.901 338.195 853.684 335.971 847.073 331.524C840.462 326.956 837.156 319.984 837.156 310.609C837.156 306.402 837.697 301.053 838.779 294.562C839.861 288.072 841.243 281.04 842.926 273.468L853.924 222.263H894.852L878.985 295.825Z" fill="black"/>
<path d="M968.753 222.263H1044.66L1041.77 235.966H1004.99L997.42 270.763H1028.25L1025.37 284.285H994.535L986.242 322.869H1023.02L1020.32 336.752H944.412L968.753 222.263Z" fill="black"/>
</svg>
